<?xml version="1.0" standalone="no"?>
<!DOCTYPE svg PUBLIC "-//W3C//DTD SVG 20010904//EN"
 "http://www.w3.org/TR/2001/REC-SVG-20010904/DTD/svg10.dtd">
<svg version="1.0" xmlns="http://www.w3.org/2000/svg"
 width="1120.000000pt" height="1120.000000pt" viewBox="0 0 1120.000000 1120.000000"
 preserveAspectRatio="xMidYMid meet">

<g transform="translate(0.000000,1120.000000) scale(0.100000,-0.100000)"
fill="#000000" stroke="none">
<path d="M0 5600 l0 -5600 5600 0 5600 0 0 5600 0 5600 -5600 0 -5600 0 0
-5600z m6185 2890 c158 -23 312 -58 430 -97 272 -89 538 -216 713 -340 65 -46
70 -57 36 -79 -17 -11 -27 -7 -87 32 -102 68 -336 186 -482 244 -348 139 -709
200 -1092 187 -404 -15 -771 -107 -1138 -287 -529 -259 -990 -712 -1276 -1255
-204 -386 -295 -747 -306 -1210 -4 -198 -2 -253 16 -397 32 -244 106 -525 184
-701 25 -57 34 -68 50 -63 13 3 16 1 10 -5 -10 -10 -86 -50 -88 -46 -1 1 -25
61 -53 132 -83 212 -137 418 -174 665 -18 117 -17 615 0 735 70 464 212 832
474 1222 263 394 658 749 1071 963 343 179 694 282 1080 320 146 14 471 4 632
-20z m-180 -110 c432 -37 879 -187 1219 -409 77 -50 80 -51 100 -34 l21 18
-19 -22 c-11 -13 -22 -23 -26 -23 -5 0 -48 25 -96 56 -341 215 -763 358 -1167
395 -160 15 -483 7 -627 -16 -241 -37 -515 -118 -732 -216 -181 -81 -323 -164
-498 -292 -115 -84 -149 -115 -308 -271 -429 -420 -718 -982 -799 -1550 -25
-173 -25 -605 0 -766 35 -222 130 -560 193 -682 8 -15 10 -29 6 -32 -10 -6
-80 176 -126 325 -39 131 -80 328 -97 474 -17 142 -14 483 5 643 70 580 358
1154 802 1594 168 166 275 255 448 369 493 327 1118 488 1701 439z m-1109
-2748 c14 -56 48 -146 88 -230 36 -75 68 -156 72 -178 14 -90 -49 -203 -129
-233 -73 -28 -175 -1 -215 56 -62 89 -56 174 27 352 35 74 71 170 83 219 12
48 23 93 25 100 8 34 28 -2 49 -86z m-2206 -1420 c134 -67 87 -255 -65 -257
-65 0 -101 23 -126 81 -17 36 -18 50 -9 83 25 94 115 136 200 93z m368 -2 c52
-24 88 -90 78 -146 -14 -73 -111 -128 -187 -105 -59 18 -89 61 -89 128 0 115
91 172 198 123z m1054 10 c48 -14 57 -29 29 -51 -17 -14 -28 -16 -41 -9 -88
47 -175 -66 -105 -135 39 -40 115 -32 115 11 0 20 -5 24 -30 24 -25 0 -30 4
-30 25 0 22 3 24 38 21 20 -3 45 -5 55 -5 14 -1 17 -11 17 -61 0 -68 -7 -75
-86 -85 -140 -17 -219 145 -116 238 37 34 94 43 154 27z m621 -4 c88 -36 116
-142 57 -209 -43 -50 -105 -65 -166 -42 -57 22 -84 62 -84 127 0 36 6 54 27
79 46 55 105 71 166 45z m-2623 -16 c24 -24 26 -72 4 -91 -14 -11 -14 -13 1
-22 39 -22 34 -94 -8 -115 -12 -6 -52 -13 -89 -16 l-68 -5 0 134 0 135 70 0
c57 0 74 -4 90 -20z m190 -85 l0 -105 55 0 c52 0 55 -1 55 -25 0 -24 -3 -25
-65 -26 -36 -1 -73 -2 -82 -3 -16 -1 -18 12 -21 118 -1 66 0 126 2 133 3 7 17
13 31 13 l25 0 0 -105z m1100 90 c47 -24 70 -62 70 -115 0 -87 -58 -130 -175
-130 l-65 0 0 130 0 130 70 0 c43 0 82 -6 100 -15z m1014 4 c27 -13 49 -59 39
-87 -3 -9 -16 -26 -29 -37 l-24 -20 30 -45 c35 -52 35 -56 14 -64 -24 -9 -47
8 -74 58 -33 61 -50 60 -50 -3 0 -44 -2 -49 -25 -53 -13 -3 -27 -3 -30 0 -3 3
-5 63 -5 134 l0 128 65 0 c35 0 75 -5 89 -11z m564 -92 c3 -92 4 -98 27 -109
19 -9 29 -7 50 6 24 16 25 21 25 111 l0 95 30 0 30 0 0 -92 c0 -75 -4 -99 -20
-125 -36 -60 -150 -66 -183 -10 -6 12 -14 68 -17 125 l-5 103 30 -3 30 -3 3
-98z m411 88 c84 -43 47 -155 -51 -155 l-38 0 0 -45 c0 -43 -1 -45 -30 -45
l-30 0 0 130 0 130 60 0 c34 0 74 -7 89 -15z m-1559 -200 l0 -25 -140 0 -140
0 0 25 0 25 140 0 140 0 0 -25z m1940 16 c0 -5 3 -16 6 -25 5 -14 -11 -16
-144 -16 -151 0 -170 4 -158 35 4 12 33 15 151 15 81 0 145 -4 145 -9z m-1910
-140 c0 -16 -11 -19 -92 -25 -150 -10 -195 -8 -202 10 -3 9 -4 20 0 25 3 5 70
9 150 9 133 0 144 -1 144 -19z m1940 -11 c0 -20 -5 -20 -137 -18 -122 3 -138
5 -141 21 -3 15 9 17 137 17 135 0 141 -1 141 -20z m-50 -156 c0 -21 -4 -24
-40 -24 l-40 0 0 -110 c0 -109 0 -110 -24 -110 -32 0 -36 15 -36 126 l0 94
-40 0 c-37 0 -40 2 -40 28 l0 27 110 -3 c109 -3 110 -3 110 -28z m1156 11 c24
-16 25 -17 9 -35 -13 -15 -22 -17 -36 -10 -10 6 -34 10 -54 10 -101 0 -118
-144 -20 -174 12 -3 37 2 60 14 38 19 41 19 52 3 19 -26 16 -33 -22 -49 -111
-46 -215 13 -215 124 0 108 134 178 226 117z m1178 2 c127 -73 76 -257 -72
-257 -83 0 -142 56 -142 135 0 55 31 102 83 125 55 25 83 25 131 -3z m-3734
-122 l0 -135 -30 0 -30 0 0 135 0 135 30 0 30 0 0 -135z m306 119 c43 -21 79
-90 70 -138 -15 -77 -75 -116 -181 -116 l-65 0 0 135 0 135 71 0 c44 0 84 -6
105 -16z m384 -9 c0 -24 -2 -25 -70 -25 l-70 0 0 -30 0 -30 60 0 c53 0 60 -2
60 -20 0 -18 -7 -20 -60 -20 l-60 0 0 -35 0 -34 68 -3 c61 -3 67 -5 64 -23 -2
-11 -5 -21 -5 -21 -1 -1 -44 -4 -95 -5 l-92 -4 0 138 0 137 100 0 100 0 0 -25z
m240 -57 c31 -45 61 -83 68 -86 9 -3 12 19 12 82 0 85 0 86 25 86 l25 0 0
-136 0 -135 -27 3 c-22 2 -43 22 -93 90 l-65 87 -3 -90 c-3 -86 -4 -89 -26
-89 -29 0 -36 32 -36 173 l0 97 33 0 c29 -1 37 -9 87 -82z m620 -53 l0 -135
-24 0 c-31 0 -36 19 -36 158 l0 112 30 0 30 0 0 -135z m320 110 c0 -24 -2 -25
-65 -25 l-65 0 0 -30 c0 -30 1 -30 55 -30 52 0 55 -1 55 -25 0 -24 -3 -25 -55
-25 l-55 0 0 -55 c0 -54 0 -55 -30 -55 l-30 0 0 135 0 135 95 0 c95 0 95 0 95
-25z m160 -110 l0 -135 -30 0 -30 0 0 135 0 135 30 0 30 0 0 -135z m188 -2 l3
-133 -31 0 -30 0 0 136 0 135 28 -3 27 -3 3 -132z m668 9 c30 -68 54 -128 54
-133 0 -5 -13 -9 -29 -9 -22 0 -31 6 -37 23 -9 30 -22 37 -66 37 -37 0 -78
-26 -78 -50 0 -5 -15 -10 -34 -10 l-34 0 56 135 c55 133 57 136 85 133 28 -3
33 -12 83 -126z m352 106 c-2 -19 -10 -24 -40 -26 l-38 -3 0 -110 0 -109 -30
0 -30 0 0 110 0 110 -45 0 c-41 0 -45 2 -45 25 l0 25 116 0 c114 0 115 0 112
-22z m162 -113 c0 -128 -1 -135 -20 -135 -11 0 -23 1 -27 3 -5 1 -8 62 -8 134
l0 133 28 0 27 0 0 -135z m596 102 c16 -18 45 -57 64 -87 l35 -55 3 88 3 87
30 0 30 0 -3 -132 -3 -133 -25 -3 c-22 -2 -35 10 -90 89 l-65 92 -3 -91 c-3
-90 -3 -92 -27 -92 l-25 0 0 119 c0 66 -3 126 -6 135 -5 12 1 16 24 16 21 0
38 -9 58 -33z m-4421 -146 c233 -229 487 -403 780 -534 359 -160 695 -231
1095 -232 277 0 498 32 763 111 215 63 490 185 641 284 43 28 82 50 87 48 29
-10 -306 -190 -487 -263 -222 -89 -508 -161 -743 -184 -318 -33 -689 2 -1014
95 -298 86 -680 283 -927 480 -88 71 -309 283 -295 284 5 0 50 -40 100 -89z
m-34 -60 c195 -197 415 -351 700 -491 269 -132 487 -202 779 -249 369 -60 731
-45 1095 45 253 63 610 212 780 326 55 37 62 39 84 27 14 -8 26 -19 28 -26 9
-26 -259 -174 -482 -266 -229 -94 -503 -166 -760 -198 -147 -19 -503 -16 -655
5 -353 48 -680 149 -950 293 -280 150 -450 272 -640 459 -134 132 -134 133
-116 153 11 12 24 21 29 21 5 0 54 -44 108 -99z"/>
<path d="M2572 4150 c-46 -43 -36 -118 18 -140 84 -35 162 77 97 138 -30 28
-86 29 -115 2z"/>
<path d="M2935 4145 c-34 -33 -33 -83 1 -120 22 -23 31 -27 62 -22 41 7 82 46
82 78 0 28 -26 75 -45 83 -35 13 -76 6 -100 -19z"/>
<path d="M4620 4145 c-34 -37 -33 -90 4 -121 30 -27 53 -30 91 -12 27 12 55
54 55 83 0 9 -13 30 -29 46 -38 38 -88 40 -121 4z"/>
<path d="M2010 4140 c0 -26 3 -30 29 -30 16 0 31 6 35 15 10 26 -5 45 -35 45
-26 0 -29 -4 -29 -30z"/>
<path d="M2004 4046 c-8 -32 1 -46 30 -46 31 0 59 23 55 46 -3 14 -14 20 -41
22 -33 3 -38 0 -44 -22z"/>
<path d="M3290 4085 l0 -86 38 7 c53 9 82 39 82 85 0 46 -36 79 -86 79 l-34 0
0 -85z"/>
<path d="M4320 4136 c0 -31 3 -36 23 -36 32 0 60 23 56 46 -3 14 -14 20 -42
22 -36 3 -37 3 -37 -32z"/>
<path d="M5300 4130 c0 -36 3 -40 24 -40 22 0 56 22 56 36 0 23 -25 44 -50 44
-28 0 -30 -2 -30 -40z"/>
<path d="M7955 3665 c-36 -35 -35 -96 1 -124 38 -30 89 -27 121 5 22 22 25 32
20 67 -7 50 -36 77 -84 77 -23 0 -42 -8 -58 -25z"/>
<path d="M4540 3605 l0 -85 40 0 c30 0 47 7 65 25 55 54 14 145 -66 145 l-39
0 0 -85z"/>
<path d="M7137 3629 c-22 -59 -22 -59 18 -59 40 0 42 8 17 64 l-18 40 -17 -45z"/>
</g>
</svg>
